#!OML:ASF Y:\EmotionMaleHayes\Project 1\Capture day 1\Session 1\Male1.ASF
:FULLY-SPECIFIED
:DEGREES
604
root 27.6231 16.3105 -15.2654 -31.9067 102.386 -31.666
lowerback 12.5213 0.732948 -5.24401
upperback 3.91494 0.557402 1.36901
thorax -2.95556 0.349213 4.31139
lowerneck -19.4018 -7.74213 -5.13958
upperneck 19.0527 -12.7472 16.1609
head 10.8646 -4.24148 4.68505
rclavicle 2.78299e-015 -3.4191e-014
rhumerus -50.9802 5.19449 -84.1789
rradius 41.6079
rwrist -17.3316
rhand -21.8802 -30.9459
rfingers 7.12502
rthumb 4.52448 -60.8776
lclavicle 2.78299e-015 -3.4191e-014
lhumerus -30.2141 -45.981 93.2797
lradius 55.7896
lwrist 11.1942
lhand -26.9927 -27.9411
lfingers 7.12502
lthumb -0.413012 2.03827
rfemur -16.2636 -0.93925 29.7903
rtibia 26.7005
rfoot -16.2138 -10.9185
rtoes 23.5102
lfemur -2.67981 -0.331743 -8.35857
ltibia 62.4534
lfoot 1.44937 3.21754
ltoes -9.77593
605
root 27.8399 16.4031 -15.2503 -34.9429 101.235 -34.7316
lowerback 12.422 0.917223 -5.35951
upperback 3.95291 0.787261 1.27885
thorax -2.88737 0.459746 4.24777
lowerneck -19.8253 -7.73096 -4.81549
upperneck 19.342 -12.8241 15.9504
head 11.0219 -4.23867 4.53919
rclavicle 1.37161e-014 1.11319e-014
rhumerus -49.3897 6.62749 -85.672
rradius 43.2469
rwrist -17.7359
rhand -21.9133 -30.6292
rfingers 7.12502
rthumb 4.49248 -60.5616
lclavicle 1.37161e-014 1.11319e-014
lhumerus -32.4784 -44.2898 94.9293
lradius 53.3524
lwrist 11.9694
lhand -27.1517 -27.7857
lfingers 7.12502
lthumb -0.566583 2.19331
rfemur -14.1864 -0.300919 30.1821
rtibia 24.8616
rfoot -16.2138 -10.9185
rtoes 23.5102
lfemur -4.9607 -0.288686 -8.81289
ltibia 63.083
lfoot 0.495355 2.83285
ltoes -12.4079
606
root 28.0536 16.4951 -15.2369 -38.7061 99.9004 -38.5996
lowerback 12.2639 1.12307 -5.3042
upperback 3.90943 1.06298 1.18817
thorax -2.87629 0.59438 4.0804
lowerneck -19.9267 -7.72669 -4.51808
upperneck 19.4844 -12.8995 15.8243
head 11.0724 -4.25072 4.43137
rclavicle 6.95746e-015 -6.36111e-015
rhumerus -48.1341 8.49124 -87.2638
rradius 45.3782
rwrist -18.3017
rhand -21.9776 -30.6837
rfingers 7.12502
rthumb 4.4304 -60.6173
lclavicle 6.95746e-015 -6.36111e-015
lhumerus -34.7582 -42.3591 96.259
lradius 51.0398
lwrist 12.0014
lhand -27.5419 -27.5304
lfingers 7.12502
lthumb -0.943457 2.44726
rfemur -11.975 0.393476 30.7143
rtibia 22.6245
rfoot -16.2138 -10.9185
rtoes 23.5102
lfemur -7.20915 -0.195921 -9.07882
ltibia 63.2287
lfoot 0.011438 2.65114
ltoes -15.2028
607
root 28.2704 16.5777 -15.2214 -43.5067 98.4095 -43.4947
lowerback 12.0849 1.36526 -5.10582
upperback 3.80473 1.40169 1.13617
thorax -2.92162 0.761583 3.86388
lowerneck -19.9194 -7.78152 -4.38547
upperneck 19.7158 -13.0507 15.817
head 11.1661 -4.29411 4.38681
rclavicle -4.57205e-015 6.36111e-015
rhumerus -47.1639 10.8525 -88.9289
rradius 47.6542
rwrist -19.2859
rhand -22.0665 -30.8877
rfingers 7.12502
rthumb 4.34457 -60.8231
lclavicle -4.57205e-015 6.36111e-015
lhumerus -36.8939 -40.277 97.2313
lradius 48.7714
lwrist 11.433
lhand -27.6934 -26.9732
lfingers 7.12502
lthumb -1.08977 3.0038
rfemur -9.64175 1.31502 31.4173
rtibia 20.1529
rfoot -16.2138 -10.9185
rtoes 23.5102
lfemur -9.3445 -0.144461 -9.02416
ltibia 62.8759
lfoot -1.29231 2.35745
ltoes -15.3449
608
root 28.5012 16.6466 -15.2115 -50.8603 96.9136 -50.8396
lowerback 11.8657 1.59774 -4.82343
upperback 3.78483 1.74507 1.10077
thorax -2.85156 0.927896 3.61927
lowerneck -20.3554 -7.71511 -4.04975
upperneck 20.2995 -13.0733 15.4913
head 11.4183 -4.25989 4.21367
rclavicle 5.36719e-015 2.06736e-014
rhumerus -46.08 13.5699 -90.4424
rradius 49.8291
rwrist -20.2639
rhand -21.8818 -31.0495
rfingers 7.12502
rthumb 4.52291 -60.9812
lclavicle 5.36719e-015 2.06736e-014
lhumerus -38.7671 -37.8611 97.776
lradius 46.6861
lwrist 11.1034
lhand -27.0396 -26.2337
lfingers 7.12502
lthumb -0.45829 3.74555
rfemur -7.77676 2.51634 32.225
rtibia 18.6373
rfoot -16.2138 -10.9185
rtoes 23.5102
lfemur -11.1695 -0.0595065 -8.88216
ltibia 62.2421
lfoot -2.84606 2.16853
ltoes -14.4985
609
root 28.7249 16.7097 -15.2026 -60.9866 95.3509 -60.9795
lowerback 11.7421 1.83398 -4.1089
upperback 3.65809 2.13054 1.02655
thorax -2.93061 1.11868 3.08172
lowerneck -20.4514 -7.56522 -3.53346
upperneck 20.7427 -13.0012 15.1629
head 11.5302 -4.19149 4.02958
rclavicle 4.57205e-015 -1.27222e-014
rhumerus -45.2473 16.1248 -91.8445
rradius 52.3151
rwrist -21.0323
rhand -21.6918 -31.3139
rfingers 7.12502
rthumb 4.70635 -61.2416
lclavicle 4.57205e-015 -1.27222e-014
lhumerus -40.9267 -35.5049 98.1108
lradius 45.0441
lwrist 11.2234
lhand -25.7857 -25.1351
lfingers 7.12502
lthumb 0.752692 4.84334
rfemur -5.06882 2.93073 33.1902
rtibia 15.5867
rfoot -16.2138 -10.9185
rtoes 23.5102
lfemur -13.0375 0.255598 -8.31385
ltibia 61.6099
lfoot -3.89677 1.86614
ltoes -16.2066
610
root 28.9362 16.7676 -15.1889 -78.4846 93.9905 -78.6471
lowerback 11.6322 2.05824 -3.42578
upperback 3.52392 2.49782 1.01536
thorax -3.01586 1.29939 2.6315
lowerneck -21.129 -7.77319 -3.05178
upperneck 21.5886 -13.4685 14.6695
head 11.9579 -4.33352 3.68769
rclavicle -1.70955e-014 7.95139e-015
rhumerus -44.45 18.8682 -92.9961
rradius 55.1512
rwrist -21.8949
rhand -21.6169 -31.3502
rfingers 7.12502
rthumb 4.77874 -61.2764
lclavicle -1.70955e-014 7.95139e-015
lhumerus -42.9056 -33.157 98.1214
lradius 43.792
lwrist 11.3882
lhand -25.6776 -25.4012
lfingers 7.12502
lthumb 0.857139 4.5768
rfemur -3.49575 3.61891 34.3101
rtibia 14.297
rfoot -16.2138 -10.9185
rtoes 23.5102
lfemur -15.108 0.765292 -7.47813
ltibia 60.9057
lfoot -3.98833 1.79276
ltoes -14.7697
